<?xml version="1.0" encoding="UTF-8"?>
<svg id="Layer_2" data-name="Layer 2" xmlns="http://www.w3.org/2000/svg" xmlns:xlink="http://www.w3.org/1999/xlink" viewBox="0 0 138.64 119.02">
  <defs>
    <style>
      .cls-1 {
        fill: url(#linear-gradient-2);
      }

      .cls-2 {
        fill: url(#linear-gradient);
      }
    </style>
    <linearGradient id="linear-gradient" x1="147.82" y1="99.47" x2="63.27" y2="-2.15" gradientUnits="userSpaceOnUse">
      <stop offset="0" stop-color="#6fb46b"/>
      <stop offset="1" stop-color="#76ff00"/>
    </linearGradient>
    <linearGradient id="linear-gradient-2" x1="86.42" y1="150.56" x2="1.86" y2="48.94" xlink:href="#linear-gradient"/>
  </defs>
  <g id="Layer_1-2" data-name="Layer 1">
    <g>
      <path class="cls-2" d="M63.25.39c3.21-.46,14.51-.56,17.64-.07,3.37.52,4.09,3.59,2.73,6.39-3.71,7.64-16.12,20.08-16.23,28.21-.03,2.66,1.18,5.28,2.45,7.54,7.64,13.65,19.67,26.77,27.61,40.48,5.13,6.87,9.38,3.1,12.67-2.74,1.65-2.93,2.37-4.77,2.02-8.25-.78-7.62-14.3-21.15-17.9-29.1-5.34-11.83,3.34-21.37,9.72-30.61,2.34-3.39,5.96-10.11,9.72-11.38,2.89-.98,15.57-.92,19.07-.58,3.81.37,4.73,2.91,3.19,6.19-4.75,10.16-20.36,22.2-15.01,34.13,7.01,15.62,25.6,24.79,13.99,44.79-4.31,7.43-12.44,20.13-17.76,26.65-7.08,8.68-20.21,9.07-27.73.78-14.02-20.67-28.95-40.82-42.67-61.69-5.95-9.05-9.44-15.57-3.33-26.14,4.27-7.41,10.47-14.66,14.95-22.06,1.24-1.28,3.12-2.27,4.88-2.52Z"/>
      <path class="cls-1" d="M9.94,37.01c2.6-.57,3.52,1.41,4.84,3.14,16.58,21.63,30.61,46.59,46.86,68.61,2.73,3.77,2.69,9.45-2.92,9.98-3.74.35-12.25.4-15.93-.01-3-.34-5.36-2.44-7.15-4.69-11.86-14.86-21.6-33.35-33.16-48.63-3.78-6.86-3.02-12.94.74-19.56,1.04-1.84,3.86-6.34,5.17-7.78.46-.5.84-.91,1.54-1.06Z"/>
    </g>
  </g>
</svg>